<?xml version="1.0" encoding="UTF-8" standalone="no"?>
<!-- Created with Inkscape (http://www.inkscape.org/) -->

<svg
   width="145.66588mm"
   height="146.05022mm"
   viewBox="0 0 145.66588 146.05022"
   version="1.1"
   id="svg5"
   xml:space="preserve"
   xmlns:inkscape="http://www.inkscape.org/namespaces/inkscape"
   xmlns:sodipodi="http://sodipodi.sourceforge.net/DTD/sodipodi-0.dtd"
   xmlns="http://www.w3.org/2000/svg"
   xmlns:svg="http://www.w3.org/2000/svg"><sodipodi:namedview
     id="namedview7"
     pagecolor="#505050"
     bordercolor="#eeeeee"
     borderopacity="1"
     inkscape:showpageshadow="0"
     inkscape:pageopacity="0"
     inkscape:pagecheckerboard="0"
     inkscape:deskcolor="#505050"
     inkscape:document-units="mm"
     showgrid="false" /><defs
     id="defs2"><filter
       style="color-interpolation-filters:sRGB"
       inkscape:label="Color Shift"
       id="filter7542"
       x="0"
       y="0"
       width="1"
       height="1"><feColorMatrix
         type="hueRotate"
         values="90"
         result="color1"
         id="feColorMatrix7538" /><feColorMatrix
         type="saturate"
         values="0.996885"
         result="color2"
         id="feColorMatrix7540" /></filter></defs><g
     inkscape:label="Layer 1"
     inkscape:groupmode="layer"
     id="layer1"
     transform="translate(-63.975652,44.377154)"><g
       id="g7119"
       style="filter:url(#filter7542)"
       transform="matrix(0.49975478,0,0,0.49975478,961.28726,-303.20717)"><path
         style="fill:#00314c;fill-opacity:1;stroke:none;stroke-width:2.3;stroke-linecap:round"
         d="m -1653.0642,810.15339 -85.7535,-15.61288 -56.1842,-53.40844 -0.5019,-50.12907 15.4074,-24.9141 66.8907,-44.33675 28.9157,-17.99646 -22.8939,-10.60715 -9.5855,-13.5491 52.7419,-43.65812 2.5091,25.59269 21.2284,14.54378 33.9715,33.63073 30.1091,31.61451 -23.5854,14.05091 8.6052,14.05088 40.2016,44.70297 22.4513,41.60967 c 0,0 -38.64,27.09818 -42.6545,28.10179 -4.0146,1.00365 -81.873,26.31414 -81.873,26.31414 z"
         id="path5114" /><path
         style="fill:#078cd6;fill-opacity:1;stroke:none;stroke-width:2.3;stroke-linecap:round"
         d="m -1703.4512,781.05664 c 0,0 -34.6837,-7.73333 -50.3871,-26.96774 -15.7035,-19.23441 -26.9678,-83.03226 -26.2581,-88 0.7097,-4.96774 14.3224,-40.39295 31.2258,-48.69479 16.9034,-8.30185 64.5806,-13.6384 64.5806,-13.6384 0,0 28.8753,-4.36069 29.0968,-13.23727 0.2216,-8.87657 -43.2903,-20.85872 -43.2903,-20.85872 0,0 -42.9548,-11.59736 -33.3548,-28.07905 9.5999,-16.48169 117.0967,-23.66663 117.0967,-23.66663 0,0 -83.6282,11.12871 -86.5806,28.07905 -2.9525,16.95036 58.9032,28.48019 61.0322,30.0847 2.1291,1.60452 99.3549,20.45759 99.3549,20.45759 0,0 -12.0645,26.87567 -34.0645,28.07905 -22,1.20339 -95.0464,3.4037 -98.5948,4.20596 -3.5484,0.80226 -19.9214,11.01045 7.7561,23.78464 27.6774,12.77419 92.258,24.12903 95.8064,26.25806 3.5484,2.12903 127.0322,-45.41935 26.9677,44 -100.0645,89.41935 -110,87.29032 -110,87.29032 z"
         id="path4326"
         sodipodi:nodetypes="czzzczczczscssssscc" /><circle
         style="fill:#43bcff;fill-opacity:1;stroke:none;stroke-width:3.336;stroke-linecap:round"
         id="circle4328"
         cx="-1653.9795"
         cy="714.2843"
         r="62.78989" /><path
         style="fill:#ffffff;stroke:none;stroke-width:3.88971;stroke-linecap:round"
         d="m -1738.8177,726.42974 85.5135,-38.10601 102.3162,25.80407 -111.6177,27.00427 z"
         id="path4330" /><path
         style="fill:#ffffff;stroke:none;stroke-width:3.88971;stroke-linecap:round"
         d="m -1657.2048,794.54051 -20.4032,-77.71229 19.503,-85.51351 28.5046,84.91342 z"
         id="path4332" /></g></g></svg>
